# MagicaVoxel @ Ephtracy

# group
o 

# material
mtllib door bottom.mtl
usemtl palette

# normals
vn -1 0 0
vn 1 0 0
vn 0 0 1
vn 0 0 -1
vn 0 -1 0
vn 0 1 0

# texcoords
vt 0.00195312 0.5
vt 0.162109 0.5
vt 0.166016 0.5
vt 0.169922 0.5
vt 0.173828 0.5
vt 0.181641 0.5

# verts
v -2 0 1.7
v -2 0 1.4
v -2 0.3 1.8
v -2 0.3 1.7
v -2 0.7 1.8
v -2 0.7 1.7
v -2 3.8 1.8
v -2 3.8 1.7
v -2 4 1.8
v -2 4 1.7
v -2 4 1.4
v 1.3 0.3 1.7
v 1.3 0.3 1.6
v 1.3 0.3 1.5
v 1.3 0.3 1.4
v 1.3 2.7 1.6
v 1.3 2.7 1.5
v 1.3 3.4 2
v 1.3 3.4 1.7
v 1.3 3.4 1.6
v 1.3 3.4 1.5
v 1.3 3.4 1.4
v 1.3 3.4 1.1
v 1.3 3.7 2
v 1.3 3.7 1.7
v 1.3 3.7 1.4
v 1.3 3.7 1.1
v 1.3 4 2
v 1.3 4 1.7
v 1.3 4 1.4
v 1.3 4 1.1
v -1.9 0.3 1.8
v -1.9 0.3 1.7
v -1.9 0.7 1.8
v -1.9 0.7 1.7
v -1.9 3.8 1.8
v -1.9 3.8 1.7
v -1.9 4 1.8
v -1.9 4 1.7
v -1 0.3 1.7
v -1 0.3 1.6
v -1 0.3 1.5
v -1 0.3 1.4
v -1 3.4 1.7
v -1 3.4 1.6
v -1 3.4 1.5
v -1 3.4 1.4
v 2 0 1.7
v 2 0 1.4
v 2 3.4 2
v 2 3.4 1.7
v 2 3.4 1.4
v 2 3.4 1.1
v 2 3.7 2
v 2 3.7 1.7
v 2 3.7 1.4
v 2 3.7 1.1
v 2 4 2
v 2 4 1.7
v 2 4 1.4
v 2 4 1.1
v 1.3 3.4 2
v 1.3 3.7 2
v 1.3 4 2
v 2 3.4 2
v 2 3.7 2
v 2 4 2
v -2 0.3 1.8
v -2 0.7 1.8
v -2 3.8 1.8
v -2 4 1.8
v -1.9 0.3 1.8
v -1.9 0.7 1.8
v -1.9 3.8 1.8
v -1.9 4 1.8
v -2 0 1.7
v -2 0.3 1.7
v -2 0.7 1.7
v -2 3.8 1.7
v -1.9 0.3 1.7
v -1.9 0.7 1.7
v -1.9 3.8 1.7
v -1.9 4 1.7
v -1.6 0 1.7
v -1.6 4 1.7
v -1.3 0 1.7
v -1.3 3.7 1.7
v -1 0.3 1.7
v -1 3.4 1.7
v 1.3 0.3 1.7
v 1.3 3.4 1.7
v 1.3 3.7 1.7
v 1.3 4 1.7
v 1.6 0 1.7
v 1.6 3.4 1.7
v 2 0 1.7
v 2 3.4 1.7
v -1 0.3 1.6
v -1 3.4 1.6
v 0.2 3.3 1.6
v 0.2 3.4 1.6
v 0.6 3.2 1.6
v 0.6 3.3 1.6
v 1 3.1 1.6
v 1 3.2 1.6
v 1.1 2.9 1.6
v 1.1 3.1 1.6
v 1.2 2.7 1.6
v 1.2 2.9 1.6
v 1.3 0.3 1.6
v 1.3 2.7 1.6
v 1.3 3.4 1.6
v -1 0.3 1.5
v -1 3.4 1.5
v 0.2 3.3 1.5
v 0.2 3.4 1.5
v 0.6 3.2 1.5
v 0.6 3.3 1.5
v 1 3.1 1.5
v 1 3.2 1.5
v 1.1 2.9 1.5
v 1.1 3.1 1.5
v 1.2 2.7 1.5
v 1.2 2.9 1.5
v 1.3 0.3 1.5
v 1.3 2.7 1.5
v 1.3 3.4 1.5
v -2 0 1.4
v -2 4 1.4
v -1.6 0 1.4
v -1.6 4 1.4
v -1.3 0 1.4
v -1.3 3.7 1.4
v -1 0.3 1.4
v -1 3.4 1.4
v 1.3 0.3 1.4
v 1.3 3.4 1.4
v 1.3 3.7 1.4
v 1.3 4 1.4
v 1.6 0 1.4
v 1.6 3.4 1.4
v 2 0 1.4
v 2 3.4 1.4
v 1.3 3.4 1.1
v 1.3 3.7 1.1
v 1.3 4 1.1
v 2 3.4 1.1
v 2 3.7 1.1
v 2 4 1.1
v -2 0 1.7
v -1.6 0 1.7
v -1.3 0 1.7
v 1.6 0 1.7
v 2 0 1.7
v -1.3 0 1.6
v 1.6 0 1.6
v -1.3 0 1.5
v 1.6 0 1.5
v -2 0 1.4
v -1.6 0 1.4
v -1.3 0 1.4
v 1.6 0 1.4
v 2 0 1.4
v -2 0.3 1.8
v -1.9 0.3 1.8
v -2 0.3 1.7
v -1.9 0.3 1.7
v 1.3 3.4 2
v 2 3.4 2
v -1 3.4 1.7
v 1.3 3.4 1.7
v 1.6 3.4 1.7
v 2 3.4 1.7
v -1 3.4 1.6
v 0.2 3.4 1.6
v 1.3 3.4 1.6
v -1 3.4 1.5
v 0.2 3.4 1.5
v 1.3 3.4 1.5
v -1 3.4 1.4
v 1.3 3.4 1.4
v 1.6 3.4 1.4
v 2 3.4 1.4
v 1.3 3.4 1.1
v 2 3.4 1.1
v -2 3.8 1.8
v -1.9 3.8 1.8
v -2 3.8 1.7
v -1.9 3.8 1.7
v -1 0.3 1.7
v 1.3 0.3 1.7
v -1 0.3 1.6
v 1.3 0.3 1.6
v -1 0.3 1.5
v 1.3 0.3 1.5
v -1 0.3 1.4
v 1.3 0.3 1.4
v -2 0.7 1.8
v -1.9 0.7 1.8
v -2 0.7 1.7
v -1.9 0.7 1.7
v 1.3 4 2
v 2 4 2
v -2 4 1.8
v -1.9 4 1.8
v -2 4 1.7
v -1.9 4 1.7
v -1.6 4 1.7
v 1.3 4 1.7
v 2 4 1.7
v -2 4 1.4
v -1.6 4 1.4
v 1.3 4 1.4
v 2 4 1.4
v 1.3 4 1.1
v 2 4 1.1

# faces
f 4/6/1 2/6/1 1/6/1
f 5/1/1 4/1/1 3/1/1
f 6/6/1 2/6/1 4/6/1
f 6/1/1 4/1/1 5/1/1
f 8/6/1 2/6/1 6/6/1
f 9/1/1 8/1/1 7/1/1
f 10/6/1 2/6/1 8/6/1
f 10/1/1 8/1/1 9/1/1
f 11/6/1 2/6/1 10/6/1
f 16/3/1 13/3/1 12/3/1
f 17/3/1 15/3/1 14/3/1
f 19/3/1 16/3/1 12/3/1
f 20/3/1 16/3/1 19/3/1
f 21/3/1 15/3/1 17/3/1
f 22/3/1 15/3/1 21/3/1
f 24/2/1 19/2/1 18/2/1
f 25/2/1 19/2/1 24/2/1
f 26/2/1 23/2/1 22/2/1
f 27/2/1 23/2/1 26/2/1
f 28/3/1 25/3/1 24/3/1
f 29/3/1 25/3/1 28/3/1
f 30/3/1 27/3/1 26/3/1
f 31/3/1 27/3/1 30/3/1
f 32/1/2 33/1/2 34/1/2
f 34/1/2 33/1/2 35/1/2
f 36/1/2 37/1/2 38/1/2
f 38/1/2 37/1/2 39/1/2
f 40/3/2 41/3/2 44/3/2
f 44/3/2 41/3/2 45/3/2
f 42/3/2 43/3/2 46/3/2
f 46/3/2 43/3/2 47/3/2
f 48/5/2 49/5/2 51/5/2
f 51/5/2 49/5/2 52/5/2
f 50/2/2 51/2/2 54/2/2
f 51/5/2 52/5/2 55/5/2
f 54/2/2 51/2/2 55/2/2
f 52/2/2 53/2/2 56/2/2
f 55/5/2 52/5/2 56/5/2
f 56/2/2 53/2/2 57/2/2
f 54/3/2 55/3/2 58/3/2
f 55/5/2 56/5/2 59/5/2
f 58/3/2 55/3/2 59/3/2
f 56/3/2 57/3/2 60/3/2
f 59/5/2 56/5/2 60/5/2
f 60/3/2 57/3/2 61/3/2
f 65/2/3 63/2/3 62/2/3
f 66/3/3 64/3/3 63/3/3
f 66/2/3 63/2/3 65/2/3
f 67/3/3 64/3/3 66/3/3
f 72/1/3 69/1/3 68/1/3
f 73/1/3 69/1/3 72/1/3
f 74/1/3 71/1/3 70/1/3
f 75/1/3 71/1/3 74/1/3
f 80/6/3 77/6/3 76/6/3
f 81/6/3 79/6/3 78/6/3
f 82/6/3 79/6/3 81/6/3
f 84/6/3 80/6/3 76/6/3
f 84/6/3 83/6/3 82/6/3
f 84/6/3 82/6/3 81/6/3
f 84/6/3 81/6/3 80/6/3
f 85/6/3 83/6/3 84/6/3
f 86/5/3 85/5/3 84/5/3
f 87/5/3 85/5/3 86/5/3
f 88/3/3 87/3/3 86/3/3
f 89/3/3 87/3/3 88/3/3
f 90/3/3 88/3/3 86/3/3
f 91/3/3 87/3/3 89/3/3
f 92/5/3 85/5/3 87/5/3
f 92/3/3 87/3/3 91/3/3
f 93/5/3 85/5/3 92/5/3
f 94/3/3 91/3/3 90/3/3
f 94/3/3 90/3/3 86/3/3
f 95/3/3 91/3/3 94/3/3
f 96/5/3 95/5/3 94/5/3
f 97/5/3 95/5/3 96/5/3
f 100/4/3 99/4/3 98/4/3
f 101/4/3 99/4/3 100/4/3
f 102/4/3 100/4/3 98/4/3
f 103/5/3 101/5/3 100/5/3
f 103/4/3 100/4/3 102/4/3
f 104/4/3 102/4/3 98/4/3
f 105/5/3 103/5/3 102/5/3
f 105/4/3 102/4/3 104/4/3
f 106/4/3 104/4/3 98/4/3
f 107/5/3 105/5/3 104/5/3
f 107/4/3 104/4/3 106/4/3
f 108/4/3 106/4/3 98/4/3
f 109/5/3 107/5/3 106/5/3
f 109/4/3 106/4/3 108/4/3
f 110/4/3 108/4/3 98/4/3
f 111/5/3 109/5/3 108/5/3
f 111/4/3 108/4/3 110/4/3
f 112/5/3 101/5/3 103/5/3
f 112/5/3 109/5/3 111/5/3
f 112/5/3 103/5/3 105/5/3
f 112/5/3 105/5/3 107/5/3
f 112/5/3 107/5/3 109/5/3
f 113/4/4 114/4/4 115/4/4
f 115/4/4 114/4/4 116/4/4
f 113/4/4 115/4/4 117/4/4
f 115/5/4 116/5/4 118/5/4
f 117/4/4 115/4/4 118/4/4
f 113/4/4 117/4/4 119/4/4
f 117/5/4 118/5/4 120/5/4
f 119/4/4 117/4/4 120/4/4
f 113/4/4 119/4/4 121/4/4
f 119/5/4 120/5/4 122/5/4
f 121/4/4 119/4/4 122/4/4
f 113/4/4 121/4/4 123/4/4
f 121/5/4 122/5/4 124/5/4
f 123/4/4 121/4/4 124/4/4
f 113/4/4 123/4/4 125/4/4
f 123/5/4 124/5/4 126/5/4
f 125/4/4 123/4/4 126/4/4
f 118/5/4 116/5/4 127/5/4
f 126/5/4 124/5/4 127/5/4
f 120/5/4 118/5/4 127/5/4
f 122/5/4 120/5/4 127/5/4
f 124/5/4 122/5/4 127/5/4
f 128/6/4 129/6/4 130/6/4
f 130/6/4 129/6/4 131/6/4
f 130/5/4 131/5/4 132/5/4
f 132/5/4 131/5/4 133/5/4
f 132/3/4 133/3/4 134/3/4
f 134/3/4 133/3/4 135/3/4
f 132/3/4 134/3/4 136/3/4
f 135/3/4 133/3/4 137/3/4
f 133/5/4 131/5/4 138/5/4
f 137/3/4 133/3/4 138/3/4
f 138/5/4 131/5/4 139/5/4
f 136/3/4 137/3/4 140/3/4
f 132/3/4 136/3/4 140/3/4
f 140/3/4 137/3/4 141/3/4
f 140/5/4 141/5/4 142/5/4
f 142/5/4 141/5/4 143/5/4
f 144/2/4 145/2/4 147/2/4
f 145/3/4 146/3/4 148/3/4
f 147/2/4 145/2/4 148/2/4
f 148/3/4 146/3/4 149/3/4
f 155/5/5 152/5/5 151/5/5
f 155/3/5 153/3/5 152/3/5
f 156/5/5 154/5/5 153/5/5
f 156/3/5 153/3/5 155/3/5
f 157/5/5 155/5/5 151/5/5
f 157/5/5 156/5/5 155/5/5
f 158/5/5 154/5/5 156/5/5
f 158/5/5 156/5/5 157/5/5
f 159/6/5 151/6/5 150/6/5
f 160/5/5 157/5/5 151/5/5
f 160/6/5 151/6/5 159/6/5
f 161/3/5 158/3/5 157/3/5
f 161/5/5 157/5/5 160/5/5
f 162/5/5 154/5/5 158/5/5
f 162/3/5 158/3/5 161/3/5
f 163/5/5 154/5/5 162/5/5
f 166/1/5 165/1/5 164/1/5
f 167/1/5 165/1/5 166/1/5
f 171/2/5 169/2/5 168/2/5
f 172/2/5 169/2/5 171/2/5
f 173/2/5 169/2/5 172/2/5
f 174/3/5 171/3/5 170/3/5
f 175/3/5 171/3/5 174/3/5
f 176/3/5 171/3/5 175/3/5
f 180/3/5 178/3/5 177/3/5
f 180/3/5 179/3/5 178/3/5
f 181/3/5 179/3/5 180/3/5
f 184/2/5 183/2/5 182/2/5
f 184/2/5 182/2/5 181/2/5
f 185/2/5 183/2/5 184/2/5
f 188/1/5 187/1/5 186/1/5
f 189/1/5 187/1/5 188/1/5
f 190/3/6 191/3/6 192/3/6
f 192/3/6 191/3/6 193/3/6
f 194/3/6 195/3/6 196/3/6
f 196/3/6 195/3/6 197/3/6
f 198/1/6 199/1/6 200/1/6
f 200/1/6 199/1/6 201/1/6
f 204/1/6 205/1/6 206/1/6
f 206/1/6 205/1/6 207/1/6
f 202/3/6 203/3/6 209/3/6
f 209/3/6 203/3/6 210/3/6
f 207/6/6 208/6/6 211/6/6
f 206/6/6 207/6/6 211/6/6
f 209/5/6 210/5/6 212/5/6
f 211/6/6 208/6/6 212/6/6
f 208/5/6 209/5/6 212/5/6
f 212/5/6 210/5/6 213/5/6
f 213/5/6 210/5/6 214/5/6
f 213/3/6 214/3/6 215/3/6
f 215/3/6 214/3/6 216/3/6
